<svg width="18" height="18" viewBox="0 0 18 18" fill="none" xmlns="http://www.w3.org/2000/svg">
  <path d="M17.2344 1.28123C16.6099 0.656695 15.4723 0.961491 13.1973 1.57108L4.89887 3.79465C2.23316 4.50892 0.900298 4.86606 0.721735 5.81077C0.543173 6.75548 1.65373 7.57445 3.87484 9.21241L4.42433 9.61763C5.43489 10.3629 5.94017 10.7355 6.50604 10.693C7.0719 10.6505 7.51583 10.2065 8.4037 9.31866L10.1045 7.61781C10.3236 7.39876 10.6788 7.39876 10.8978 7.61781C11.1169 7.83687 11.1169 8.19202 10.8978 8.41108L9.19697 10.1119C8.3091 10.9998 7.86517 11.4437 7.82265 12.0096C7.78014 12.5754 8.15276 13.0807 8.89799 14.0913L9.30322 14.6408C10.9412 16.8619 11.7601 17.9725 12.7049 17.7939C13.6496 17.6153 14.0067 16.2825 14.721 13.6168L16.9445 5.31829C17.5541 3.04328 17.8589 1.90577 17.2344 1.28123Z" fill="#5D82EA" />
  <path d="M4.61298 13.3617C4.76234 13.2124 5.00449 13.2124 5.15384 13.3617C5.3032 13.5111 5.3032 13.7532 5.15384 13.9026L3.72399 15.3324C3.57464 15.4818 3.33248 15.4818 3.18313 15.3324C3.03377 15.1831 3.03377 14.9409 3.18313 14.7916L4.61298 13.3617Z" fill="#5D82EA" />
  <path d="M4.27877 11.7508C4.48999 11.7508 4.66122 11.922 4.66122 12.1332C4.66122 12.3444 4.48999 12.5157 4.27877 12.5157H2.18864C1.97742 12.5157 1.80619 12.3444 1.80619 12.1332C1.80619 11.922 1.97742 11.7508 2.18864 11.7508H4.27877Z" fill="#5D82EA" />
  <path d="M6.76473 14.2367C6.76473 14.0255 6.5935 13.8543 6.38228 13.8543C6.17106 13.8543 5.99983 14.0255 5.99983 14.2367V16.2446C5.99983 16.4559 6.17106 16.6271 6.38228 16.6271C6.5935 16.6271 6.76473 16.4559 6.76473 16.2446V14.2367Z" fill="#5D82EA" />
</svg>