<svg width="46" height="46" viewBox="0 0 46 46" fill="none" xmlns="http://www.w3.org/2000/svg">
<path d="M34.4697 36.0813H33.0453C31.546 36.0813 30.1216 36.6623 29.0721 37.7118L25.8673 40.8793C24.4055 42.3224 22.0253 42.3224 20.5635 40.8793L17.3587 37.7118C16.3091 36.6623 14.8661 36.0813 13.3855 36.0813H11.9799C8.86878 36.0813 6.35742 33.5888 6.35742 30.5152V10.0681C6.35742 6.99452 8.86878 4.50195 11.9799 4.50195H34.4697C37.5807 4.50195 40.0921 6.99452 40.0921 10.0681V30.5152C40.0921 33.57 37.5807 36.0813 34.4697 36.0813Z" stroke="#292D32" stroke-width="2.81122" stroke-miterlimit="10" stroke-linecap="round" stroke-linejoin="round"/>
<path d="M13.8535 17.9018C13.8535 16.1588 15.2779 14.7344 17.0208 14.7344C18.7638 14.7344 20.1881 16.1588 20.1881 17.9018C20.1881 21.4252 15.1842 21.8 14.0784 25.1548C13.8535 25.8482 14.4345 26.5416 15.1654 26.5416H20.1881" stroke="#292D32" stroke-width="2.81122" stroke-linecap="round" stroke-linejoin="round"/>
<path d="M30.7956 26.5228V15.8215C30.7956 15.3342 30.477 14.903 30.0084 14.7718C29.5399 14.6407 29.0339 14.8281 28.7715 15.2404C27.4221 17.4144 25.9603 19.8883 24.6859 22.0623C24.4797 22.4184 24.4797 22.8869 24.6859 23.243C24.892 23.5991 25.2856 23.8239 25.7167 23.8239H32.5948" stroke="#292D32" stroke-width="2.81122" stroke-linecap="round" stroke-linejoin="round"/>
</svg>
