<svg width="46" height="46" viewBox="0 0 46 46" fill="none" xmlns="http://www.w3.org/2000/svg">
<path d="M41.9674 32.1071V9.48616C41.9674 7.23718 40.1307 5.56919 37.9005 5.7566H37.788C33.8523 6.09395 27.8738 8.09929 24.5378 10.1983L24.2192 10.4045C23.6757 10.7418 22.7761 10.7418 22.2326 10.4045L21.764 10.1234C18.428 8.04306 12.4683 6.05647 8.53254 5.73786C6.3023 5.55044 4.48438 7.23718 4.48438 9.46742V32.1071C4.48438 33.9063 5.94621 35.5931 7.7454 35.818L8.2889 35.8929C12.3558 36.4364 18.6342 38.498 22.2326 40.4659L22.3075 40.5033C22.8136 40.7845 23.6194 40.7845 24.1067 40.5033C27.7051 38.5167 34.0022 36.4364 38.0879 35.8929L38.7063 35.818C40.5055 35.5931 41.9674 33.9063 41.9674 32.1071Z" stroke="#292D32" stroke-width="2.81122" stroke-linecap="round" stroke-linejoin="round"/>
<path d="M23.2246 11.0244V39.1367" stroke="#292D32" stroke-width="2.81122" stroke-linecap="round" stroke-linejoin="round"/>
<path d="M15.2579 16.6475H11.041" stroke="#292D32" stroke-width="2.81122" stroke-linecap="round" stroke-linejoin="round"/>
<path d="M16.6635 22.2695H11.041" stroke="#292D32" stroke-width="2.81122" stroke-linecap="round" stroke-linejoin="round"/>
</svg>
