<svg width="33" height="33" viewBox="0 0 33 33" fill="none" xmlns="http://www.w3.org/2000/svg">
  <g clip-path="url(#clip0_11460_87566)">
    <path fill-rule="evenodd" clip-rule="evenodd" d="M2.78304 14.5062C11.0877 10.8879 16.6255 8.50254 19.3964 7.35005C27.3077 4.05944 28.9516 3.48783 30.023 3.46895C30.2587 3.4648 30.7856 3.5232 31.1269 3.80016C31.4151 4.03402 31.4944 4.34992 31.5324 4.57164C31.5703 4.79337 31.6176 5.29845 31.58 5.69311C31.1513 10.1977 29.2962 21.1292 28.3525 26.1744C27.9532 28.3092 27.1669 29.025 26.4056 29.095C24.7513 29.2473 23.4951 28.0017 21.8928 26.9514C19.3855 25.3078 17.9691 24.2847 15.5353 22.6809C12.7227 20.8274 14.546 19.8087 16.1489 18.1439C16.5684 17.7082 23.8574 11.0782 23.9985 10.4768C24.0161 10.4015 24.0325 10.1212 23.8659 9.9731C23.6993 9.82505 23.4535 9.87568 23.2761 9.91594C23.0246 9.97302 19.0192 12.6205 11.2599 17.8583C10.1229 18.639 9.09316 19.0194 8.1705 18.9994C7.15335 18.9775 5.19676 18.4243 3.74223 17.9515C1.95819 17.3716 0.540276 17.065 0.663745 16.0801C0.728055 15.5671 1.43449 15.0425 2.78304 14.5062Z" fill="#1D1D1F" />
  </g>
  <defs>
    <clipPath id="clip0_11460_87566">
      <rect width="32" height="32" fill="white" transform="translate(0.125 0.125)" />
    </clipPath>
  </defs>
</svg>