<svg width="24" height="24" viewBox="0 0 24 24" fill="none" xmlns="http://www.w3.org/2000/svg">
  <path d="M5.1851 5.18012C5.4319 4.94019 5.83203 4.94019 6.07883 5.18012L18.8042 17.5512C19.051 17.7911 19.051 18.1801 18.8042 18.4201C18.5574 18.66 18.1573 18.66 17.9105 18.4201L5.1851 6.04896C4.9383 5.80904 4.9383 5.42004 5.1851 5.18012Z" fill="#1D1D1F" />
  <path d="M18.8042 5.17994C19.051 5.41987 19.051 5.80887 18.8042 6.04879L6.07883 18.4199C5.83203 18.6598 5.4319 18.6598 5.1851 18.4199C4.9383 18.18 4.9383 17.791 5.1851 17.551L17.9105 5.17994C18.1573 4.94002 18.5574 4.94002 18.8042 5.17994Z" fill="#1D1D1F" />
</svg>