<svg width="84" height="23" viewBox="0 0 84 23" fill="none" xmlns="http://www.w3.org/2000/svg">
<path fill-rule="evenodd" clip-rule="evenodd" d="M24.9347 20.0242C24.4328 19.2866 24.1941 18.4003 24.2575 17.5093V1.04095H22.235V17.3416C22.2145 18.3 22.3946 19.252 22.7638 20.136C23.173 21.0598 23.9107 21.7972 24.8327 22.2039C25.7641 22.5617 26.7588 22.7234 27.7551 22.6789H32.0506V21.2724H27.5232C27.0257 21.3081 26.5274 21.2166 26.0747 21.0064C25.6221 20.7963 25.2299 20.4744 24.9347 20.0708V20.0242Z" fill="#1D1D1F"/>
<path fill-rule="evenodd" clip-rule="evenodd" d="M17.6014 6.94747C17.4248 8.27938 16.3097 8.96862 14.9623 9.35981L2.0552 12.8898V3.97629C2.0552 3.04488 2.98444 2.53261 3.91367 2.51398H13.9959C15.7708 2.51398 17.2668 3.24048 17.5735 4.74004C17.6849 5.47161 17.6849 6.2159 17.5735 6.94747H17.6014ZM14.061 1.04236H3.98801C1.55341 0.995793 -0.0448841 2.10416 0.00157783 4.33954V17.3792C-0.0189757 18.3375 0.161474 19.2895 0.531244 20.1734C0.966601 21.0967 1.73302 21.8217 2.67779 22.2039C3.61068 22.5617 4.60702 22.7234 5.60489 22.6789H19.6271V21.2725H5.33541C4.83576 21.3089 4.33506 21.2178 3.88006 21.0077C3.42506 20.7976 3.0306 20.4753 2.73354 20.071C2.22879 19.3309 1.98963 18.441 2.0552 17.5469V14.7526L15.269 11.027C17.4899 10.4123 19.3855 9.31324 19.7665 7.13375C19.9058 6.32944 19.9058 5.50709 19.7665 4.70279C19.3112 2.02034 16.7093 1.06099 14.061 1.04236Z" fill="#1D1D1F"/>
<path fill-rule="evenodd" clip-rule="evenodd" d="M74.1828 10.9396C76.4078 10.3267 78.3069 9.23102 78.6886 7.05814C78.8282 6.25627 78.8282 5.43642 78.6886 4.63455C78.2324 2.01596 75.6258 1.05953 72.9725 1.04095H63.6071C61.1587 1.04095 59.5668 2.09953 59.6133 4.32812C59.6133 10.4382 59.6133 16.5296 59.6133 22.6397H61.6707C61.6707 16.4058 61.6707 10.1813 61.6707 3.96598C61.6707 3.0374 62.6575 2.52668 63.5326 2.50811H72.8422C74.6203 2.50811 76.1192 3.2324 76.4357 4.72741C76.5381 5.45743 76.5381 6.19812 76.4357 6.92814C76.2495 8.25601 75.1324 8.94316 73.7825 9.33316L68.8763 10.726C68.6505 10.7795 68.448 10.9041 68.2987 11.0814C68.1495 11.2587 68.0615 11.4792 68.0478 11.7103C68.0508 11.853 68.0819 11.9936 68.1394 12.1243C68.1969 12.2549 68.2797 12.373 68.3829 12.4718L77.8228 22.6861H80.4295L70.5241 11.9239L74.1642 10.9025L74.1828 10.9396Z" fill="#1D1D1F"/>
<path fill-rule="evenodd" clip-rule="evenodd" d="M81.2549 22.6861H83.2656V1.04095H81.2549V22.6861Z" fill="#1D1D1F"/>
<path fill-rule="evenodd" clip-rule="evenodd" d="M38.5857 15.2671C39.9656 12.5849 40.8886 10.8279 44.6553 3.49158L44.935 2.95888C45.0203 2.77485 45.1371 2.60722 45.28 2.46356C45.3386 2.3977 45.4104 2.34501 45.4908 2.30893C45.5711 2.27285 45.6582 2.2542 45.7462 2.2542C45.8342 2.2542 45.9213 2.27285 46.0016 2.30893C46.082 2.34501 46.1538 2.3977 46.2124 2.46356C46.3553 2.60722 46.4721 2.77485 46.5573 2.95888L46.8371 3.49158C48.9721 7.64104 50.1749 10.0335 51.0606 11.6877L38.5857 15.2671ZM48.0398 1.87478C47.7884 1.53462 47.4713 1.24859 47.1074 1.03368C46.6992 0.799245 46.2353 0.67977 45.7648 0.687888C45.2882 0.683084 44.8176 0.795389 44.3943 1.01498C44.031 1.23464 43.7143 1.52358 43.4619 1.86544C43.208 2.22206 42.9805 2.5969 42.7813 2.98691L32.5254 22.6875H34.7351C35.9938 20.2296 36.8608 18.5287 37.5321 17.1923L51.7879 13.155C52.9626 15.4259 53.7645 16.9586 56.6921 22.6875H58.9017L48.6458 2.98691C48.4516 2.59508 48.2206 2.22269 47.9559 1.87478H48.0398Z" fill="#1D1D1F"/>
</svg>
