<svg width="46" height="46" viewBox="0 0 46 46" fill="none" xmlns="http://www.w3.org/2000/svg">
<path d="M23.224 28.8474C26.3292 28.8474 28.8465 26.3302 28.8465 23.225C28.8465 20.1198 26.3292 17.6025 23.224 17.6025C20.1188 17.6025 17.6016 20.1198 17.6016 23.225C17.6016 26.3302 20.1188 28.8474 23.224 28.8474Z" stroke="#292D32" stroke-width="2.81122" stroke-miterlimit="10" stroke-linecap="round" stroke-linejoin="round"/>
<path d="M4.4834 24.8733V21.5748C4.4834 19.6257 6.07643 18.014 8.04428 18.014C11.4365 18.014 12.8234 15.615 11.1179 12.6726C10.1433 10.9859 10.7243 8.79314 12.4298 7.81858L15.6721 5.96317C17.1526 5.08232 19.0643 5.60709 19.9451 7.08766L20.1513 7.44375C21.838 10.3862 24.6118 10.3862 26.3172 7.44375L26.5234 7.08766C27.4042 5.60709 29.3159 5.08232 30.7965 5.96317L34.0387 7.81858C35.7442 8.79314 36.3252 10.9859 35.3506 12.6726C33.6452 15.615 35.032 18.014 38.4242 18.014C40.3734 18.014 41.9851 19.607 41.9851 21.5748V24.8733C41.9851 26.8225 40.3921 28.4342 38.4242 28.4342C35.032 28.4342 33.6452 30.8331 35.3506 33.7756C36.3252 35.481 35.7442 37.655 34.0387 38.6296L30.7965 40.485C29.3159 41.3659 27.4042 40.8411 26.5234 39.3605L26.3172 39.0044C24.6305 36.062 21.8568 36.062 20.1513 39.0044L19.9451 39.3605C19.0643 40.8411 17.1526 41.3659 15.6721 40.485L12.4298 38.6296C10.7243 37.655 10.1433 35.4623 11.1179 33.7756C12.8234 30.8331 11.4365 28.4342 8.04428 28.4342C6.07643 28.4342 4.4834 26.8225 4.4834 24.8733Z" stroke="#292D32" stroke-width="2.81122" stroke-miterlimit="10" stroke-linecap="round" stroke-linejoin="round"/>
</svg>
