<svg width="46" height="46" viewBox="0 0 46 46" fill="none" xmlns="http://www.w3.org/2000/svg">
<path d="M32.5947 35.2756H25.0981L16.7581 40.823C15.5211 41.6476 13.8532 40.7668 13.8532 39.2675V35.2756C8.23072 35.2756 4.48242 31.5273 4.48242 25.9048V14.6598C4.48242 9.03736 8.23072 5.28906 13.8532 5.28906H32.5947C38.2171 5.28906 41.9654 9.03736 41.9654 14.6598V25.9048C41.9654 31.5273 38.2171 35.2756 32.5947 35.2756Z" stroke="#292D32" stroke-width="2.81122" stroke-miterlimit="10" stroke-linecap="round" stroke-linejoin="round"/>
<path d="M23.2243 22.0264V21.6329C23.2243 20.3585 24.0115 19.6838 24.7987 19.1403C25.5671 18.6155 26.3354 17.9409 26.3354 16.7039C26.3354 14.9797 24.9485 13.5928 23.2243 13.5928C21.5001 13.5928 20.1133 14.9797 20.1133 16.7039" stroke="#292D32" stroke-width="2.81122" stroke-linecap="round" stroke-linejoin="round"/>
<path d="M23.2158 26.5045H23.2326" stroke="#292D32" stroke-width="2.81122" stroke-linecap="round" stroke-linejoin="round"/>
</svg>
